<?xml version="1.0" encoding="UTF-8"?>
<svg xmlns="http://www.w3.org/2000/svg" xmlns:xlink="http://www.w3.org/1999/xlink" width="160pt" height="120pt" viewBox="0 0 160 120" version="1.1">
<defs>
<clipPath id="clip1">
  <rect x="0" y="0" width="160" height="120"/>
</clipPath>
<g id="surface5" clip-path="url(#clip1)">
<path style=" stroke:none;fill-rule:nonzero;fill:rgb(0%,0%,0%);fill-opacity:1;" d="M 120 0 L 160 0 L 160 40 L 120 40 Z M 120 0 "/>
</g>
<clipPath id="clip2">
  <rect x="0" y="0" width="160" height="120"/>
</clipPath>
<g id="surface8" clip-path="url(#clip2)">
<path style=" stroke:none;fill-rule:nonzero;fill:rgb(100%,90%,60%);fill-opacity:1;" d="M 120 40 L 160 40 L 160 80 L 120 80 Z M 120 40 "/>
</g>
<clipPath id="clip3">
  <rect x="0" y="0" width="160" height="120"/>
</clipPath>
<g id="surface11" clip-path="url(#clip3)">
<path style=" stroke:none;fill-rule:nonzero;fill:rgb(100%,100%,100%);fill-opacity:1;" d="M 120 80 L 160 80 L 160 120 L 120 120 Z M 120 80 "/>
</g>
<clipPath id="clip4">
  <path d="M 120 0 L 160 0 L 160 120 L 120 120 Z M 120 0 "/>
</clipPath>
<clipPath id="clip5">
  <path d="M 120 39 L 160 39 L 160 81 L 120 81 Z M 120 39 "/>
</clipPath>
<clipPath id="clip7">
  <path d="M 2 54 L 115 54 L 115 114 L 2 114 Z M 2 54 "/>
</clipPath>
<clipPath id="clip8">
  <path d="M 2.398438 54 L 74.398438 54 L 114.398438 114 L 42.398438 114 Z M 2.398438 54 "/>
</clipPath>
<clipPath id="clip6">
  <rect x="0" y="0" width="160" height="120"/>
</clipPath>
<g id="surface14" clip-path="url(#clip6)">
<g clip-path="url(#clip7)" clip-rule="nonzero">
<g clip-path="url(#clip8)" clip-rule="nonzero">
<path style="fill-rule:nonzero;fill:rgb(100%,100%,100%);fill-opacity:1;stroke-width:0.0333333;stroke-linecap:butt;stroke-linejoin:miter;stroke:rgb(0%,0%,0%);stroke-opacity:1;stroke-miterlimit:10;" d="M -0.0000217014 -0.000000000000000111 L 0.999978 -0.000000000000000111 L 0.999978 1 L -0.0000217014 1 Z M -0.0000217014 -0.000000000000000111 " transform="matrix(72,0,40,60,2.4,54)"/>
</g>
</g>
</g>
<filter id="alpha" filterUnits="objectBoundingBox" x="0%" y="0%" width="100%" height="100%">
  <feColorMatrix type="matrix" in="SourceGraphic" values="0 0 0 0 1 0 0 0 0 1 0 0 0 0 1 0 0 0 1 0"/>
</filter>
<mask id="mask0">
  <g filter="url(#alpha)">
<rect x="0" y="0" width="160" height="120" style="fill:rgb(0%,0%,0%);fill-opacity:0.15;stroke:none;"/>
  </g>
</mask>
<clipPath id="clip10">
  <path d="M 4 30 L 117 30 L 117 90 L 4 90 Z M 4 30 "/>
</clipPath>
<clipPath id="clip11">
  <path d="M 4.800781 30 L 76.800781 30 L 116.800781 90 L 44.800781 90 Z M 4.800781 30 "/>
</clipPath>
<clipPath id="clip9">
  <rect x="0" y="0" width="160" height="120"/>
</clipPath>
<g id="surface17" clip-path="url(#clip9)">
<g clip-path="url(#clip10)" clip-rule="nonzero">
<g clip-path="url(#clip11)" clip-rule="nonzero">
<path style=" stroke:none;fill-rule:nonzero;fill:rgb(100%,90%,60%);fill-opacity:1;" d="M 4.800781 30 L 76.800781 30 L 116.800781 90 L 44.800781 90 Z M 4.800781 30 "/>
</g>
</g>
</g>
<mask id="mask1">
  <g filter="url(#alpha)">
<rect x="0" y="0" width="160" height="120" style="fill:rgb(0%,0%,0%);fill-opacity:0.15;stroke:none;"/>
  </g>
</mask>
<clipPath id="clip13">
  <path d="M 7 6 L 120 6 L 120 66 L 7 66 Z M 7 6 "/>
</clipPath>
<clipPath id="clip14">
  <path d="M 7.199219 6 L 79.199219 6 L 119.199219 66 L 47.199219 66 Z M 7.199219 6 "/>
</clipPath>
<clipPath id="clip12">
  <rect x="0" y="0" width="160" height="120"/>
</clipPath>
<g id="surface20" clip-path="url(#clip12)">
<g clip-path="url(#clip13)" clip-rule="nonzero">
<g clip-path="url(#clip14)" clip-rule="nonzero">
<path style=" stroke:none;fill-rule:nonzero;fill:rgb(0%,0%,0%);fill-opacity:1;" d="M 7.199219 6 L 79.199219 6 L 119.199219 66 L 47.199219 66 Z M 7.199219 6 "/>
</g>
</g>
</g>
</defs>
<g id="surface1">
<use xlink:href="#surface5"/>
<use xlink:href="#surface8"/>
<use xlink:href="#surface11"/>
<g clip-path="url(#clip4)" clip-rule="nonzero">
<path style="fill:none;stroke-width:0.05;stroke-linecap:butt;stroke-linejoin:miter;stroke:rgb(0%,0%,0%);stroke-opacity:1;stroke-miterlimit:10;" d="M 0 0 L 1 0 L 1 3 L 0 3 Z M 0 0 " transform="matrix(40,0,0,40,120,0)"/>
</g>
<g clip-path="url(#clip5)" clip-rule="nonzero">
<path style="fill:none;stroke-width:0.05;stroke-linecap:butt;stroke-linejoin:miter;stroke:rgb(0%,0%,0%);stroke-opacity:1;stroke-miterlimit:10;" d="M 0 1 L 1 1 L 1 2 L 0 2 Z M 0 1 " transform="matrix(40,0,0,40,120,0)"/>
</g>
<use xlink:href="#surface14" transform="matrix(1,0,0,1,0.000000000000012879,0.000000000000007105)"/>
<use xlink:href="#surface17" transform="matrix(1,0,0,1,0.000000000000002665,0)" mask="url(#mask0)"/>
<use xlink:href="#surface20" transform="matrix(1,0,0,1,0.000000000000000888,0)" mask="url(#mask1)"/>
</g>
</svg>
