<?xml version="1.0" encoding="UTF-8"?>
<svg xmlns="http://www.w3.org/2000/svg" xmlns:xlink="http://www.w3.org/1999/xlink" width="160pt" height="120pt" viewBox="0 0 160 120" version="1.1">
<defs>
<linearGradient id="linear0" gradientUnits="userSpaceOnUse" x1="0" y1="0" x2="1" y2="1" gradientTransform="matrix(40,0,0,40,120,0)">
<stop offset="0" style="stop-color:rgb(0%,30%,80%);stop-opacity:1;"/>
<stop offset="1" style="stop-color:rgb(0%,80%,30%);stop-opacity:1;"/>
</linearGradient>
<clipPath id="clip1">
  <rect x="0" y="0" width="160" height="120"/>
</clipPath>
<g id="surface580" clip-path="url(#clip1)">
<path style=" stroke:none;fill-rule:nonzero;fill:url(#linear0);" d="M 120 0 L 160 0 L 160 40 L 120 40 Z M 120 0 "/>
</g>
<clipPath id="clip3">
  <path d="M 120 40 L 160 40 L 160 80 L 120 80 Z M 120 40 "/>
</clipPath>
<filter id="alpha" filterUnits="objectBoundingBox" x="0%" y="0%" width="100%" height="100%">
  <feColorMatrix type="matrix" in="SourceGraphic" values="0 0 0 0 1 0 0 0 0 1 0 0 0 0 1 0 0 0 1 0"/>
</filter>
<radialGradient id="radial0" gradientUnits="userSpaceOnUse" cx="0.5" cy="0.5" fx="0.5" fy="0.5" r="0.75" gradientTransform="matrix(40,0,0,40,120,40)">
<stop offset="0.333333" style="stop-color:rgb(0%,0%,0%);stop-opacity:0;"/>
<stop offset="0.666667" style="stop-color:rgb(0%,0%,0%);stop-opacity:1;"/>
</radialGradient>
<mask id="mask0">
  <g filter="url(#alpha)">
<rect x="0" y="0" width="160" height="120" style="fill:url(#radial0);stroke:none;"/>
  </g>
</mask>
<clipPath id="clip2">
  <rect x="0" y="0" width="160" height="120"/>
</clipPath>
<g id="surface583" clip-path="url(#clip2)">
<g clip-path="url(#clip3)" clip-rule="nonzero">
<rect x="0" y="0" width="160" height="120" style="fill:rgb(100%,90%,60%);fill-opacity:1;stroke:none;" mask="url(#mask0)"/>
</g>
</g>
<clipPath id="clip5">
  <path d="M 120 80 L 160 80 L 160 120 L 120 120 Z M 120 80 "/>
</clipPath>
<radialGradient id="radial1" gradientUnits="userSpaceOnUse" cx="0.5" cy="0.5" fx="0.5" fy="0.5" r="0.75" gradientTransform="matrix(40,0,0,40,120,80)">
<stop offset="0.333333" style="stop-color:rgb(0%,0%,0%);stop-opacity:1;"/>
<stop offset="0.666667" style="stop-color:rgb(0%,0%,0%);stop-opacity:0;"/>
</radialGradient>
<mask id="mask1">
  <g filter="url(#alpha)">
<rect x="0" y="0" width="160" height="120" style="fill:url(#radial1);stroke:none;"/>
  </g>
</mask>
<linearGradient id="linear1" gradientUnits="userSpaceOnUse" x1="0" y1="0" x2="1" y2="1" gradientTransform="matrix(40,0,0,40,120,80)">
<stop offset="0" style="stop-color:rgb(0%,30%,80%);stop-opacity:1;"/>
<stop offset="1" style="stop-color:rgb(0%,80%,30%);stop-opacity:1;"/>
</linearGradient>
<clipPath id="clip4">
  <rect x="0" y="0" width="160" height="120"/>
</clipPath>
<g id="surface586" clip-path="url(#clip4)">
<path style=" stroke:none;fill-rule:nonzero;fill:rgb(100%,100%,100%);fill-opacity:1;" d="M 120 80 L 160 80 L 160 120 L 120 120 Z M 120 80 "/>
<g clip-path="url(#clip5)" clip-rule="nonzero">
<rect x="0" y="0" width="160" height="120" style="fill:url(#linear1);stroke:none;" mask="url(#mask1)"/>
</g>
</g>
<clipPath id="clip6">
  <path d="M 120 0 L 160 0 L 160 120 L 120 120 Z M 120 0 "/>
</clipPath>
<clipPath id="clip7">
  <path d="M 120 39 L 160 39 L 160 81 L 120 81 Z M 120 39 "/>
</clipPath>
<clipPath id="clip9">
  <path d="M 2 54 L 115 54 L 115 114 L 2 114 Z M 2 54 "/>
</clipPath>
<clipPath id="clip10">
  <path d="M 2.398438 54 L 74.398438 54 L 114.398438 114 L 42.398438 114 Z M 2.398438 54 "/>
</clipPath>
<clipPath id="clip11">
  <path d="M 2.398438 54 L 74.398438 54 L 114.398438 114 L 42.398438 114 Z M 2.398438 54 "/>
</clipPath>
<radialGradient id="radial2" gradientUnits="userSpaceOnUse" cx="0.5" cy="0.5" fx="0.5" fy="0.5" r="0.75" gradientTransform="matrix(72,0,40,60,2.4,54)">
<stop offset="0.333333" style="stop-color:rgb(0%,0%,0%);stop-opacity:1;"/>
<stop offset="0.666667" style="stop-color:rgb(0%,0%,0%);stop-opacity:0;"/>
</radialGradient>
<mask id="mask2">
  <g filter="url(#alpha)">
<rect x="0" y="0" width="160" height="120" style="fill:url(#radial2);stroke:none;"/>
  </g>
</mask>
<linearGradient id="linear2" gradientUnits="userSpaceOnUse" x1="0" y1="0" x2="1" y2="1" gradientTransform="matrix(72,0,40,60,2.4,54)">
<stop offset="0" style="stop-color:rgb(0%,30%,80%);stop-opacity:1;"/>
<stop offset="1" style="stop-color:rgb(0%,80%,30%);stop-opacity:1;"/>
</linearGradient>
<clipPath id="clip12">
  <path d="M 2 54 L 115 54 L 115 114 L 2 114 Z M 2 54 "/>
</clipPath>
<clipPath id="clip13">
  <path d="M 2.398438 54 L 74.398438 54 L 114.398438 114 L 42.398438 114 Z M 2.398438 54 "/>
</clipPath>
<clipPath id="clip8">
  <rect x="0" y="0" width="160" height="120"/>
</clipPath>
<g id="surface589" clip-path="url(#clip8)">
<g clip-path="url(#clip9)" clip-rule="nonzero">
<g clip-path="url(#clip10)" clip-rule="nonzero">
<path style=" stroke:none;fill-rule:nonzero;fill:rgb(100%,100%,100%);fill-opacity:1;" d="M 2.398438 54 L 74.398438 54 L 114.398438 114 L 42.398438 114 Z M 2.398438 54 "/>
<g clip-path="url(#clip11)" clip-rule="nonzero">
<rect x="0" y="0" width="160" height="120" style="fill:url(#linear2);stroke:none;" mask="url(#mask2)"/>
</g>
</g>
</g>
<g clip-path="url(#clip12)" clip-rule="nonzero">
<g clip-path="url(#clip13)" clip-rule="nonzero">
<path style="fill:none;stroke-width:0.0333333;stroke-linecap:butt;stroke-linejoin:miter;stroke:rgb(0%,0%,0%);stroke-opacity:1;stroke-miterlimit:10;" d="M -0.0000217014 -0.000000000000000111 L 0.999978 -0.000000000000000111 L 0.999978 1 L -0.0000217014 1 Z M -0.0000217014 -0.000000000000000111 " transform="matrix(72,0,40,60,2.4,54)"/>
</g>
</g>
</g>
<mask id="mask3">
  <g filter="url(#alpha)">
<rect x="0" y="0" width="160" height="120" style="fill:rgb(0%,0%,0%);fill-opacity:0.8;stroke:none;"/>
  </g>
</mask>
<clipPath id="clip15">
  <path d="M 4 30 L 117 30 L 117 90 L 4 90 Z M 4 30 "/>
</clipPath>
<clipPath id="clip16">
  <path d="M 4.800781 30 L 76.800781 30 L 116.800781 90 L 44.800781 90 Z M 4.800781 30 "/>
</clipPath>
<clipPath id="clip17">
  <path d="M 4.800781 30 L 76.800781 30 L 116.800781 90 L 44.800781 90 Z M 4.800781 30 "/>
</clipPath>
<radialGradient id="radial3" gradientUnits="userSpaceOnUse" cx="0.5" cy="0.5" fx="0.5" fy="0.5" r="0.75" gradientTransform="matrix(72,0,40,60,4.8,30)">
<stop offset="0.333333" style="stop-color:rgb(0%,0%,0%);stop-opacity:0;"/>
<stop offset="0.666667" style="stop-color:rgb(0%,0%,0%);stop-opacity:1;"/>
</radialGradient>
<mask id="mask4">
  <g filter="url(#alpha)">
<rect x="0" y="0" width="160" height="120" style="fill:url(#radial3);stroke:none;"/>
  </g>
</mask>
<clipPath id="clip14">
  <rect x="0" y="0" width="160" height="120"/>
</clipPath>
<g id="surface592" clip-path="url(#clip14)">
<g clip-path="url(#clip15)" clip-rule="nonzero">
<g clip-path="url(#clip16)" clip-rule="nonzero">
<g clip-path="url(#clip17)" clip-rule="nonzero">
<rect x="0" y="0" width="160" height="120" style="fill:rgb(100%,90%,60%);fill-opacity:1;stroke:none;" mask="url(#mask4)"/>
</g>
</g>
</g>
</g>
<mask id="mask5">
  <g filter="url(#alpha)">
<rect x="0" y="0" width="160" height="120" style="fill:rgb(0%,0%,0%);fill-opacity:0.4;stroke:none;"/>
  </g>
</mask>
<clipPath id="clip19">
  <path d="M 7 6 L 120 6 L 120 66 L 7 66 Z M 7 6 "/>
</clipPath>
<clipPath id="clip20">
  <path d="M 7.199219 6 L 79.199219 6 L 119.199219 66 L 47.199219 66 Z M 7.199219 6 "/>
</clipPath>
<linearGradient id="linear3" gradientUnits="userSpaceOnUse" x1="0" y1="0" x2="1" y2="1" gradientTransform="matrix(72,0,40,60,7.2,6)">
<stop offset="0" style="stop-color:rgb(0%,30%,80%);stop-opacity:1;"/>
<stop offset="1" style="stop-color:rgb(0%,80%,30%);stop-opacity:1;"/>
</linearGradient>
<clipPath id="clip18">
  <rect x="0" y="0" width="160" height="120"/>
</clipPath>
<g id="surface595" clip-path="url(#clip18)">
<g clip-path="url(#clip19)" clip-rule="nonzero">
<g clip-path="url(#clip20)" clip-rule="nonzero">
<path style=" stroke:none;fill-rule:nonzero;fill:url(#linear3);" d="M 7.199219 6 L 79.199219 6 L 119.199219 66 L 47.199219 66 Z M 7.199219 6 "/>
</g>
</g>
</g>
</defs>
<g id="surface576">
<use xlink:href="#surface580"/>
<use xlink:href="#surface583"/>
<use xlink:href="#surface586"/>
<g clip-path="url(#clip6)" clip-rule="nonzero">
<path style="fill:none;stroke-width:0.05;stroke-linecap:butt;stroke-linejoin:miter;stroke:rgb(0%,0%,0%);stroke-opacity:1;stroke-miterlimit:10;" d="M 0 0 L 1 0 L 1 3 L 0 3 Z M 0 0 " transform="matrix(40,0,0,40,120,0)"/>
</g>
<g clip-path="url(#clip7)" clip-rule="nonzero">
<path style="fill:none;stroke-width:0.05;stroke-linecap:butt;stroke-linejoin:miter;stroke:rgb(0%,0%,0%);stroke-opacity:1;stroke-miterlimit:10;" d="M 0 1 L 1 1 L 1 2 L 0 2 Z M 0 1 " transform="matrix(40,0,0,40,120,0)"/>
</g>
<use xlink:href="#surface589" transform="matrix(1,0,0,1,0.000000000000012879,0.000000000000007105)"/>
<use xlink:href="#surface592" transform="matrix(1,0,0,1,0.000000000000002665,0)" mask="url(#mask3)"/>
<use xlink:href="#surface595" transform="matrix(1,0,0,1,0.000000000000000888,0)" mask="url(#mask5)"/>
</g>
</svg>
