<?xml version="1.0" encoding="UTF-8"?>
<svg xmlns="http://www.w3.org/2000/svg" xmlns:xlink="http://www.w3.org/1999/xlink" width="120pt" height="120pt" viewBox="0 0 120 120" version="1.1">
<g id="surface20">
<rect x="0" y="0" width="120" height="120" style="fill:rgb(100%,100%,100%);fill-opacity:1;stroke:none;"/>
<path style="fill:none;stroke-width:0.025;stroke-linecap:butt;stroke-linejoin:miter;stroke:rgb(0%,60%,0%);stroke-opacity:1;stroke-miterlimit:10;" d="M 0.25 0.25 L 0.5 0.375 L 0.75 0.25 " transform="matrix(120,0,0,120,0,0)"/>
<path style=" stroke:none;fill-rule:nonzero;fill:rgb(0%,60%,0%);fill-opacity:0.5;" d="M 35 30 C 35 36.667969 25 36.667969 25 30 C 25 23.332031 35 23.332031 35 30 "/>
<path style=" stroke:none;fill-rule:nonzero;fill:rgb(0%,0%,75%);fill-opacity:0.5;" d="M 95 30 C 95 36.667969 85 36.667969 85 30 C 85 23.332031 95 23.332031 95 30 "/>
<path style="fill:none;stroke-width:0.0166667;stroke-linecap:butt;stroke-linejoin:miter;stroke:rgb(0%,0%,0%);stroke-opacity:1;stroke-miterlimit:10;" d="M 0 0 L 1 0 L 1 1 L 0 1 Z M 0 0 " transform="matrix(120,0,0,120,0,0)"/>
</g>
</svg>
