<?xml version="1.0" encoding="UTF-8"?>
<svg xmlns="http://www.w3.org/2000/svg" xmlns:xlink="http://www.w3.org/1999/xlink" width="120pt" height="120pt" viewBox="0 0 120 120" version="1.1">
<defs>
<radialGradient id="radial0" gradientUnits="userSpaceOnUse" cx="0.5" cy="0.5" fx="0.1875" fy="0.1875" r="0.5" gradientTransform="matrix(120,0,0,120,0,0)">
<stop offset="0.2" style="stop-color:rgb(100%,80%,80%);stop-opacity:1;"/>
<stop offset="1" style="stop-color:rgb(90%,0%,0%);stop-opacity:1;"/>
</radialGradient>
<linearGradient id="linear0" gradientUnits="userSpaceOnUse" x1="0.25" y1="0.35" x2="0.75" y2="0.65" gradientTransform="matrix(120,0,0,120,0,0)">
<stop offset="0" style="stop-color:rgb(100%,100%,100%);stop-opacity:0;"/>
<stop offset="0.25" style="stop-color:rgb(0%,100%,0%);stop-opacity:0.5;"/>
<stop offset="0.5" style="stop-color:rgb(100%,100%,100%);stop-opacity:0;"/>
<stop offset="0.75" style="stop-color:rgb(0%,0%,100%);stop-opacity:0.5;"/>
<stop offset="1" style="stop-color:rgb(100%,100%,100%);stop-opacity:0;"/>
</linearGradient>
</defs>
<g id="surface7">
<rect x="0" y="0" width="120" height="120" style="fill:rgb(100%,100%,100%);fill-opacity:1;stroke:none;"/>
<path style=" stroke:none;fill-rule:nonzero;fill:url(#radial0);" d="M 7.199219 7.199219 L 16.800781 7.199219 L 16.800781 16.800781 L 7.199219 16.800781 Z M 7.199219 19.199219 L 16.800781 19.199219 L 16.800781 28.800781 L 7.199219 28.800781 Z M 7.199219 31.199219 L 16.800781 31.199219 L 16.800781 40.800781 L 7.199219 40.800781 Z M 7.199219 43.199219 L 16.800781 43.199219 L 16.800781 52.800781 L 7.199219 52.800781 Z M 7.199219 55.199219 L 16.800781 55.199219 L 16.800781 64.800781 L 7.199219 64.800781 Z M 7.199219 67.199219 L 16.800781 67.199219 L 16.800781 76.800781 L 7.199219 76.800781 Z M 7.199219 79.199219 L 16.800781 79.199219 L 16.800781 88.800781 L 7.199219 88.800781 Z M 7.199219 91.199219 L 16.800781 91.199219 L 16.800781 100.800781 L 7.199219 100.800781 Z M 7.199219 103.199219 L 16.800781 103.199219 L 16.800781 112.800781 L 7.199219 112.800781 Z M 19.199219 7.199219 L 28.800781 7.199219 L 28.800781 16.800781 L 19.199219 16.800781 Z M 19.199219 19.199219 L 28.800781 19.199219 L 28.800781 28.800781 L 19.199219 28.800781 Z M 19.199219 31.199219 L 28.800781 31.199219 L 28.800781 40.800781 L 19.199219 40.800781 Z M 19.199219 43.199219 L 28.800781 43.199219 L 28.800781 52.800781 L 19.199219 52.800781 Z M 19.199219 55.199219 L 28.800781 55.199219 L 28.800781 64.800781 L 19.199219 64.800781 Z M 19.199219 67.199219 L 28.800781 67.199219 L 28.800781 76.800781 L 19.199219 76.800781 Z M 19.199219 79.199219 L 28.800781 79.199219 L 28.800781 88.800781 L 19.199219 88.800781 Z M 19.199219 91.199219 L 28.800781 91.199219 L 28.800781 100.800781 L 19.199219 100.800781 Z M 19.199219 103.199219 L 28.800781 103.199219 L 28.800781 112.800781 L 19.199219 112.800781 Z M 31.199219 7.199219 L 40.800781 7.199219 L 40.800781 16.800781 L 31.199219 16.800781 Z M 31.199219 19.199219 L 40.800781 19.199219 L 40.800781 28.800781 L 31.199219 28.800781 Z M 31.199219 31.199219 L 40.800781 31.199219 L 40.800781 40.800781 L 31.199219 40.800781 Z M 31.199219 43.199219 L 40.800781 43.199219 L 40.800781 52.800781 L 31.199219 52.800781 Z M 31.199219 55.199219 L 40.800781 55.199219 L 40.800781 64.800781 L 31.199219 64.800781 Z M 31.199219 67.199219 L 40.800781 67.199219 L 40.800781 76.800781 L 31.199219 76.800781 Z M 31.199219 79.199219 L 40.800781 79.199219 L 40.800781 88.800781 L 31.199219 88.800781 Z M 31.199219 91.199219 L 40.800781 91.199219 L 40.800781 100.800781 L 31.199219 100.800781 Z M 31.199219 103.199219 L 40.800781 103.199219 L 40.800781 112.800781 L 31.199219 112.800781 Z M 43.199219 7.199219 L 52.800781 7.199219 L 52.800781 16.800781 L 43.199219 16.800781 Z M 43.199219 19.199219 L 52.800781 19.199219 L 52.800781 28.800781 L 43.199219 28.800781 Z M 43.199219 31.199219 L 52.800781 31.199219 L 52.800781 40.800781 L 43.199219 40.800781 Z M 43.199219 43.199219 L 52.800781 43.199219 L 52.800781 52.800781 L 43.199219 52.800781 Z M 43.199219 55.199219 L 52.800781 55.199219 L 52.800781 64.800781 L 43.199219 64.800781 Z M 43.199219 67.199219 L 52.800781 67.199219 L 52.800781 76.800781 L 43.199219 76.800781 Z M 43.199219 79.199219 L 52.800781 79.199219 L 52.800781 88.800781 L 43.199219 88.800781 Z M 43.199219 91.199219 L 52.800781 91.199219 L 52.800781 100.800781 L 43.199219 100.800781 Z M 43.199219 103.199219 L 52.800781 103.199219 L 52.800781 112.800781 L 43.199219 112.800781 Z M 55.199219 7.199219 L 64.800781 7.199219 L 64.800781 16.800781 L 55.199219 16.800781 Z M 55.199219 19.199219 L 64.800781 19.199219 L 64.800781 28.800781 L 55.199219 28.800781 Z M 55.199219 31.199219 L 64.800781 31.199219 L 64.800781 40.800781 L 55.199219 40.800781 Z M 55.199219 43.199219 L 64.800781 43.199219 L 64.800781 52.800781 L 55.199219 52.800781 Z M 55.199219 55.199219 L 64.800781 55.199219 L 64.800781 64.800781 L 55.199219 64.800781 Z M 55.199219 67.199219 L 64.800781 67.199219 L 64.800781 76.800781 L 55.199219 76.800781 Z M 55.199219 79.199219 L 64.800781 79.199219 L 64.800781 88.800781 L 55.199219 88.800781 Z M 55.199219 91.199219 L 64.800781 91.199219 L 64.800781 100.800781 L 55.199219 100.800781 Z M 55.199219 103.199219 L 64.800781 103.199219 L 64.800781 112.800781 L 55.199219 112.800781 Z M 67.199219 7.199219 L 76.800781 7.199219 L 76.800781 16.800781 L 67.199219 16.800781 Z M 67.199219 19.199219 L 76.800781 19.199219 L 76.800781 28.800781 L 67.199219 28.800781 Z M 67.199219 31.199219 L 76.800781 31.199219 L 76.800781 40.800781 L 67.199219 40.800781 Z M 67.199219 43.199219 L 76.800781 43.199219 L 76.800781 52.800781 L 67.199219 52.800781 Z M 67.199219 55.199219 L 76.800781 55.199219 L 76.800781 64.800781 L 67.199219 64.800781 Z M 67.199219 67.199219 L 76.800781 67.199219 L 76.800781 76.800781 L 67.199219 76.800781 Z M 67.199219 79.199219 L 76.800781 79.199219 L 76.800781 88.800781 L 67.199219 88.800781 Z M 67.199219 91.199219 L 76.800781 91.199219 L 76.800781 100.800781 L 67.199219 100.800781 Z M 67.199219 103.199219 L 76.800781 103.199219 L 76.800781 112.800781 L 67.199219 112.800781 Z M 79.199219 7.199219 L 88.800781 7.199219 L 88.800781 16.800781 L 79.199219 16.800781 Z M 79.199219 19.199219 L 88.800781 19.199219 L 88.800781 28.800781 L 79.199219 28.800781 Z M 79.199219 31.199219 L 88.800781 31.199219 L 88.800781 40.800781 L 79.199219 40.800781 Z M 79.199219 43.199219 L 88.800781 43.199219 L 88.800781 52.800781 L 79.199219 52.800781 Z M 79.199219 55.199219 L 88.800781 55.199219 L 88.800781 64.800781 L 79.199219 64.800781 Z M 79.199219 67.199219 L 88.800781 67.199219 L 88.800781 76.800781 L 79.199219 76.800781 Z M 79.199219 79.199219 L 88.800781 79.199219 L 88.800781 88.800781 L 79.199219 88.800781 Z M 79.199219 91.199219 L 88.800781 91.199219 L 88.800781 100.800781 L 79.199219 100.800781 Z M 79.199219 103.199219 L 88.800781 103.199219 L 88.800781 112.800781 L 79.199219 112.800781 Z M 91.199219 7.199219 L 100.800781 7.199219 L 100.800781 16.800781 L 91.199219 16.800781 Z M 91.199219 19.199219 L 100.800781 19.199219 L 100.800781 28.800781 L 91.199219 28.800781 Z M 91.199219 31.199219 L 100.800781 31.199219 L 100.800781 40.800781 L 91.199219 40.800781 Z M 91.199219 43.199219 L 100.800781 43.199219 L 100.800781 52.800781 L 91.199219 52.800781 Z M 91.199219 55.199219 L 100.800781 55.199219 L 100.800781 64.800781 L 91.199219 64.800781 Z M 91.199219 67.199219 L 100.800781 67.199219 L 100.800781 76.800781 L 91.199219 76.800781 Z M 91.199219 79.199219 L 100.800781 79.199219 L 100.800781 88.800781 L 91.199219 88.800781 Z M 91.199219 91.199219 L 100.800781 91.199219 L 100.800781 100.800781 L 91.199219 100.800781 Z M 91.199219 103.199219 L 100.800781 103.199219 L 100.800781 112.800781 L 91.199219 112.800781 Z M 103.199219 7.199219 L 112.800781 7.199219 L 112.800781 16.800781 L 103.199219 16.800781 Z M 103.199219 19.199219 L 112.800781 19.199219 L 112.800781 28.800781 L 103.199219 28.800781 Z M 103.199219 31.199219 L 112.800781 31.199219 L 112.800781 40.800781 L 103.199219 40.800781 Z M 103.199219 43.199219 L 112.800781 43.199219 L 112.800781 52.800781 L 103.199219 52.800781 Z M 103.199219 55.199219 L 112.800781 55.199219 L 112.800781 64.800781 L 103.199219 64.800781 Z M 103.199219 67.199219 L 112.800781 67.199219 L 112.800781 76.800781 L 103.199219 76.800781 Z M 103.199219 79.199219 L 112.800781 79.199219 L 112.800781 88.800781 L 103.199219 88.800781 Z M 103.199219 91.199219 L 112.800781 91.199219 L 112.800781 100.800781 L 103.199219 100.800781 Z M 103.199219 103.199219 L 112.800781 103.199219 L 112.800781 112.800781 L 103.199219 112.800781 Z M 103.199219 103.199219 "/>
<rect x="0" y="0" width="120" height="120" style="fill:url(#linear0);stroke:none;"/>
<path style="fill:none;stroke-width:0.0166667;stroke-linecap:butt;stroke-linejoin:miter;stroke:rgb(0%,0%,0%);stroke-opacity:1;stroke-miterlimit:10;" d="M 0 0 L 1 0 L 1 1 L 0 1 Z M 0 0 " transform="matrix(120,0,0,120,0,0)"/>
</g>
</svg>
