<?xml version="1.0" encoding="UTF-8"?>
<svg xmlns="http://www.w3.org/2000/svg" xmlns:xlink="http://www.w3.org/1999/xlink" width="160pt" height="120pt" viewBox="0 0 160 120" version="1.1">
<defs>
<clipPath id="clip1">
  <rect x="0" y="0" width="160" height="120"/>
</clipPath>
<g id="surface227" clip-path="url(#clip1)">
<path style=" stroke:none;fill-rule:nonzero;fill:rgb(0%,0%,0%);fill-opacity:1;" d="M 120 0 L 160 0 L 160 40 L 120 40 Z M 120 0 "/>
</g>
<filter id="alpha" filterUnits="objectBoundingBox" x="0%" y="0%" width="100%" height="100%">
  <feColorMatrix type="matrix" in="SourceGraphic" values="0 0 0 0 1 0 0 0 0 1 0 0 0 0 1 0 0 0 1 0"/>
</filter>
<clipPath id="clip3">
  <rect x="0" y="0" width="40" height="40"/>
</clipPath>
<g id="surface231" clip-path="url(#clip3)">
<path style=" stroke:none;fill-rule:evenodd;fill:rgb(0%,0%,0%);fill-opacity:1;" d="M 0 0 L 40 0 L 40 40 L 0 40 Z M 8 8 L 32 8 L 32 32 L 8 32 Z M 12 12 L 28 12 L 28 28 L 12 28 Z M 12 12 "/>
</g>
<mask id="mask0">
  <g filter="url(#alpha)">
<use xlink:href="#surface231" transform="matrix(0.025,0,0,0.025,0,0)"/>
  </g>
</mask>
<clipPath id="clip2">
  <rect x="0" y="0" width="160" height="120"/>
</clipPath>
<g id="surface232" clip-path="url(#clip2)">
<rect x="0" y="0" width="160" height="120" style="fill:rgb(100%,90%,60%);fill-opacity:1;stroke:none;" mask="url(#mask0)"/>
<path style="fill:none;stroke-width:0.025;stroke-linecap:butt;stroke-linejoin:miter;stroke:rgb(0%,60%,0%);stroke-opacity:1;stroke-miterlimit:10;" d="M 0.25 0.25 L 0.75 0.25 L 0.75 0.75 L 0.25 0.75 Z M 0.25 0.25 " transform="matrix(40,0,0,40,120,40)"/>
</g>
<clipPath id="clip4">
  <rect x="0" y="0" width="160" height="120"/>
</clipPath>
<g id="surface235" clip-path="url(#clip4)">
<path style=" stroke:none;fill-rule:nonzero;fill:rgb(100%,100%,100%);fill-opacity:1;" d="M 120 80 L 160 80 L 160 120 L 120 120 Z M 120 80 "/>
<path style="fill:none;stroke-width:0.1;stroke-linecap:butt;stroke-linejoin:miter;stroke:rgb(0%,0%,0%);stroke-opacity:1;stroke-miterlimit:10;" d="M 0.25 0.25 L 0.75 0.25 L 0.75 0.75 L 0.25 0.75 Z M 0.25 0.25 " transform="matrix(40,0,0,40,120,80)"/>
</g>
<clipPath id="clip5">
  <path d="M 120 0 L 160 0 L 160 120 L 120 120 Z M 120 0 "/>
</clipPath>
<clipPath id="clip6">
  <path d="M 120 39 L 160 39 L 160 81 L 120 81 Z M 120 39 "/>
</clipPath>
<clipPath id="clip8">
  <path d="M 2 54 L 115 54 L 115 114 L 2 114 Z M 2 54 "/>
</clipPath>
<clipPath id="clip9">
  <path d="M 2.398438 54 L 74.398438 54 L 114.398438 114 L 42.398438 114 Z M 2.398438 54 "/>
</clipPath>
<clipPath id="clip7">
  <rect x="0" y="0" width="160" height="120"/>
</clipPath>
<g id="surface238" clip-path="url(#clip7)">
<g clip-path="url(#clip8)" clip-rule="nonzero">
<g clip-path="url(#clip9)" clip-rule="nonzero">
<path style=" stroke:none;fill-rule:nonzero;fill:rgb(100%,100%,100%);fill-opacity:1;" d="M 2.398438 54 L 74.398438 54 L 114.398438 114 L 42.398438 114 Z M 2.398438 54 "/>
<path style="fill:none;stroke-width:0.1;stroke-linecap:butt;stroke-linejoin:miter;stroke:rgb(0%,0%,0%);stroke-opacity:1;stroke-miterlimit:10;" d="M 0.249978 0.25 L 0.749978 0.25 L 0.749978 0.75 L 0.249978 0.75 Z M 0.249978 0.25 " transform="matrix(72,0,40,60,2.4,54)"/>
<path style="fill:none;stroke-width:0.0333333;stroke-linecap:butt;stroke-linejoin:miter;stroke:rgb(0%,0%,0%);stroke-opacity:1;stroke-miterlimit:10;" d="M -0.0000217014 -0.000000000000000111 L 0.999978 -0.000000000000000111 L 0.999978 1 L -0.0000217014 1 Z M -0.0000217014 -0.000000000000000111 " transform="matrix(72,0,40,60,2.4,54)"/>
</g>
</g>
</g>
<mask id="mask1">
  <g filter="url(#alpha)">
<rect x="0" y="0" width="160" height="120" style="fill:rgb(0%,0%,0%);fill-opacity:0.8;stroke:none;"/>
  </g>
</mask>
<clipPath id="clip11">
  <path d="M 4 30 L 117 30 L 117 90 L 4 90 Z M 4 30 "/>
</clipPath>
<clipPath id="clip12">
  <path d="M 4.800781 30 L 76.800781 30 L 116.800781 90 L 44.800781 90 Z M 4.800781 30 "/>
</clipPath>
<clipPath id="clip14">
  <path d="M 0.800781 0 L 72.800781 0 L 112.800781 60 L 40.800781 60 Z M 0.800781 0 "/>
</clipPath>
<clipPath id="clip13">
  <rect x="0" y="0" width="113" height="60"/>
</clipPath>
<g id="surface242" clip-path="url(#clip13)">
<g clip-path="url(#clip14)" clip-rule="nonzero">
<path style=" stroke:none;fill-rule:evenodd;fill:rgb(0%,0%,0%);fill-opacity:1;" d="M 0.800781 0 L 72.800781 0 L 112.800781 60 L 40.800781 60 Z M 23.199219 12 L 66.398438 12 L 90.398438 48 L 47.199219 48 Z M 34.398438 18 L 63.199219 18 L 79.199219 42 L 50.398438 42 Z M 34.398438 18 "/>
</g>
</g>
<mask id="mask2">
  <g filter="url(#alpha)">
<use xlink:href="#surface242" transform="matrix(0.0138889,0,-0.00925926,0.0166667,-0.0111111,0)"/>
  </g>
</mask>
<clipPath id="clip15">
  <path d="M 13 30 L 109 30 L 109 90 L 13 90 Z M 13 30 "/>
</clipPath>
<clipPath id="clip16">
  <path d="M 4.800781 30 L 76.800781 30 L 116.800781 90 L 44.800781 90 Z M 4.800781 30 "/>
</clipPath>
<clipPath id="clip10">
  <rect x="0" y="0" width="160" height="120"/>
</clipPath>
<g id="surface243" clip-path="url(#clip10)">
<g clip-path="url(#clip11)" clip-rule="nonzero">
<g clip-path="url(#clip12)" clip-rule="nonzero">
<rect x="0" y="0" width="160" height="120" style="fill:rgb(100%,90%,60%);fill-opacity:1;stroke:none;" mask="url(#mask2)"/>
</g>
</g>
<g clip-path="url(#clip15)" clip-rule="nonzero">
<g clip-path="url(#clip16)" clip-rule="nonzero">
<path style="fill:none;stroke-width:0.0166667;stroke-linecap:butt;stroke-linejoin:miter;stroke:rgb(0%,60%,0%);stroke-opacity:1;stroke-miterlimit:10;" d="M 0.250011 0.25 L 0.750011 0.25 L 0.750011 0.75 L 0.250011 0.75 Z M 0.250011 0.25 " transform="matrix(72,0,40,60,4.8,30)"/>
</g>
</g>
</g>
<mask id="mask3">
  <g filter="url(#alpha)">
<rect x="0" y="0" width="160" height="120" style="fill:rgb(0%,0%,0%);fill-opacity:0.4;stroke:none;"/>
  </g>
</mask>
<clipPath id="clip18">
  <path d="M 7 6 L 120 6 L 120 66 L 7 66 Z M 7 6 "/>
</clipPath>
<clipPath id="clip19">
  <path d="M 7.199219 6 L 79.199219 6 L 119.199219 66 L 47.199219 66 Z M 7.199219 6 "/>
</clipPath>
<clipPath id="clip17">
  <rect x="0" y="0" width="160" height="120"/>
</clipPath>
<g id="surface246" clip-path="url(#clip17)">
<g clip-path="url(#clip18)" clip-rule="nonzero">
<g clip-path="url(#clip19)" clip-rule="nonzero">
<path style=" stroke:none;fill-rule:nonzero;fill:rgb(0%,0%,0%);fill-opacity:1;" d="M 7.199219 6 L 79.199219 6 L 119.199219 66 L 47.199219 66 Z M 7.199219 6 "/>
</g>
</g>
</g>
</defs>
<g id="surface223">
<use xlink:href="#surface227"/>
<use xlink:href="#surface232"/>
<use xlink:href="#surface235"/>
<g clip-path="url(#clip5)" clip-rule="nonzero">
<path style="fill:none;stroke-width:0.05;stroke-linecap:butt;stroke-linejoin:miter;stroke:rgb(0%,0%,0%);stroke-opacity:1;stroke-miterlimit:10;" d="M 0 0 L 1 0 L 1 3 L 0 3 Z M 0 0 " transform="matrix(40,0,0,40,120,0)"/>
</g>
<g clip-path="url(#clip6)" clip-rule="nonzero">
<path style="fill:none;stroke-width:0.05;stroke-linecap:butt;stroke-linejoin:miter;stroke:rgb(0%,0%,0%);stroke-opacity:1;stroke-miterlimit:10;" d="M 0 1 L 1 1 L 1 2 L 0 2 Z M 0 1 " transform="matrix(40,0,0,40,120,0)"/>
</g>
<use xlink:href="#surface238" transform="matrix(1,0,0,1,0.000000000000012879,0.000000000000007105)"/>
<use xlink:href="#surface243" transform="matrix(1,0,0,1,0.000000000000002665,0)" mask="url(#mask1)"/>
<use xlink:href="#surface246" transform="matrix(1,0,0,1,0.000000000000000888,0)" mask="url(#mask3)"/>
</g>
</svg>
